HIERARCHY
ROOT Hips
{
	OFFSET 0.000000 87.230942 0.000000
	CHANNELS 6 Xposition Yposition Zposition Xrotation Yrotation Zrotation
	JOINT Pelvis
	{
		OFFSET 0.000000 0.000000 0.000000
		CHANNELS 3 Xrotation Yrotation Zrotation
		JOINT LeftUpLeg
		{
			OFFSET 12.017000 -9.376404 -2.439400
			CHANNELS 3 Xrotation Yrotation Zrotation
			JOINT LeftLeg
			{
				OFFSET -0.007312 -32.846973 2.110600
				CHANNELS 3 Xrotation Yrotation Zrotation
				JOINT LeftFoot
				{
					OFFSET 0.007312 -32.065170 -0.570400
					CHANNELS 3 Xrotation Yrotation Zrotation
					JOINT LeftToeBase
					{
						OFFSET 0.728300 -11.045900 13.180700
						CHANNELS 3 Xrotation Yrotation Zrotation
						End Site
						{
							OFFSET 0.000000 17.212589 0.000000
						}
					}
				}
				JOINT LeftPantLeg
				{
					OFFSET 0.002788 -16.709013 -3.143600
					CHANNELS 3 Xrotation Yrotation Zrotation
					End Site
					{
						OFFSET -0.605125 24.528742 0.000000
					}
				}
			}
			JOINT Left_Butt
			{
				OFFSET -6.630234 1.326584 -3.183700
				CHANNELS 3 Xrotation Yrotation Zrotation
				End Site
				{
					OFFSET -0.498041 20.188049 0.000000
				}
			}
		}
		JOINT RightUpLeg
		{
			OFFSET -11.717000 -9.376404 -2.439400
			CHANNELS 3 Xrotation Yrotation Zrotation
			JOINT RightLeg
			{
				OFFSET -0.003241 -32.846912 2.110600
				CHANNELS 3 Xrotation Yrotation Zrotation
				JOINT RightFoot
				{
					OFFSET 0.003241 -32.065136 -0.570500
					CHANNELS 3 Xrotation Yrotation Zrotation
					JOINT RightToeBase
					{
						OFFSET -0.728300 -11.045901 13.180700
						CHANNELS 3 Xrotation Yrotation Zrotation
						End Site
						{
							OFFSET 0.000000 17.212593 0.000000
						}
					}
				}
				JOINT RightPantLeg
				{
					OFFSET 0.008142 -16.708982 -3.143700
					CHANNELS 3 Xrotation Yrotation Zrotation
					End Site
					{
						OFFSET 0.605088 24.528715 0.000000
					}
				}
			}
			JOINT Right_Butt
			{
				OFFSET 6.630732 1.326584 -3.183700
				CHANNELS 3 Xrotation Yrotation Zrotation
				End Site
				{
					OFFSET 0.498015 20.188240 0.000000
				}
			}
		}
	}
	JOINT Spine
	{
		OFFSET -0.062400 7.848404 3.918300
		CHANNELS 3 Xrotation Yrotation Zrotation
		JOINT Spine1
		{
			OFFSET -0.072800 11.422302 0.713400
			CHANNELS 3 Xrotation Yrotation Zrotation
			JOINT Spine2
			{
				OFFSET -0.083200 13.054001 -1.931600
				CHANNELS 3 Xrotation Yrotation Zrotation
				JOINT Neck
				{
					OFFSET -0.092200 14.121796 -5.138800
					CHANNELS 3 Xrotation Yrotation Zrotation
					JOINT Head
					{
						OFFSET 0.000200 10.447403 -0.842000
						CHANNELS 3 Xrotation Yrotation Zrotation
						JOINT Visor
						{
							OFFSET 0.457100 25.671204 16.550400
							CHANNELS 3 Xrotation Yrotation Zrotation
							End Site
							{
								OFFSET 0.000000 26.061493 0.000000
							}
						}
						JOINT HairMidA
						{
							OFFSET 0.459400 31.585403 8.437400
							CHANNELS 3 Xrotation Yrotation Zrotation
							End Site
							{
								OFFSET 0.000000 26.061493 0.000000
							}
						}
						JOINT HairMidB
						{
							OFFSET 0.464000 33.309204 -8.389700
							CHANNELS 3 Xrotation Yrotation Zrotation
							End Site
							{
								OFFSET 0.000000 26.061493 0.000000
							}
						}
						JOINT HairMidC
						{
							OFFSET 0.466600 27.991196 -17.375099
							CHANNELS 3 Xrotation Yrotation Zrotation
							End Site
							{
								OFFSET 0.000000 26.061493 0.000000
							}
						}
						JOINT HairMidD
						{
							OFFSET 0.467700 17.888092 -21.169500
							CHANNELS 3 Xrotation Yrotation Zrotation
							End Site
							{
								OFFSET 0.000000 26.061493 0.000000
							}
						}
						JOINT HairMidE
						{
							OFFSET 5.325700 3.514603 -14.369699
							CHANNELS 3 Xrotation Yrotation Zrotation
							End Site
							{
								OFFSET 0.000000 26.061493 0.000000
							}
						}
						JOINT HairMidF
						{
							OFFSET -4.394100 3.514603 -14.372400
							CHANNELS 3 Xrotation Yrotation Zrotation
							End Site
							{
								OFFSET 0.000000 26.061493 0.000000
							}
						}
						JOINT HairLeftA
						{
							OFFSET 15.319900 25.746506 2.623300
							CHANNELS 3 Xrotation Yrotation Zrotation
							End Site
							{
								OFFSET 0.000000 26.061493 0.000000
							}
						}
						JOINT HairLeftB
						{
							OFFSET 12.619500 29.289398 -8.731499
							CHANNELS 3 Xrotation Yrotation Zrotation
							End Site
							{
								OFFSET 0.000000 26.061493 0.000000
							}
						}
						JOINT HairLeftC
						{
							OFFSET 15.714800 15.959900 2.909800
							CHANNELS 3 Xrotation Yrotation Zrotation
							End Site
							{
								OFFSET 0.000000 26.061493 0.000000
							}
						}
						JOINT HairLeftD
						{
							OFFSET 16.101700 18.437408 -7.553200
							CHANNELS 3 Xrotation Yrotation Zrotation
							End Site
							{
								OFFSET 0.000000 26.061493 0.000000
							}
						}
						JOINT HairLeftE
						{
							OFFSET 9.731900 17.915009 -18.316799
							CHANNELS 3 Xrotation Yrotation Zrotation
							End Site
							{
								OFFSET 0.000000 26.061493 0.000000
							}
						}
						JOINT HairLeftF
						{
							OFFSET 11.204300 4.953598 -9.668100
							CHANNELS 3 Xrotation Yrotation Zrotation
							End Site
							{
								OFFSET 0.000000 26.061493 0.000000
							}
						}
						JOINT HairRightA
						{
							OFFSET -14.397900 25.746307 2.615100
							CHANNELS 3 Xrotation Yrotation Zrotation
							End Site
							{
								OFFSET 0.000000 26.061493 0.000000
							}
						}
						JOINT HairRightB
						{
							OFFSET -11.691200 29.289200 -8.738199
							CHANNELS 3 Xrotation Yrotation Zrotation
							End Site
							{
								OFFSET 0.000000 26.061493 0.000000
							}
						}
						JOINT HairRightC
						{
							OFFSET -14.792900 15.959702 2.901400
							CHANNELS 3 Xrotation Yrotation Zrotation
							End Site
							{
								OFFSET 0.000000 26.061493 0.000000
							}
						}
						JOINT HairRightD
						{
							OFFSET -15.174000 18.437195 -7.561900
							CHANNELS 3 Xrotation Yrotation Zrotation
							End Site
							{
								OFFSET 0.000000 26.061493 0.000000
							}
						}
						JOINT HairRightE
						{
							OFFSET -8.798200 17.914902 -18.322001
							CHANNELS 3 Xrotation Yrotation Zrotation
							End Site
							{
								OFFSET 0.000000 26.061493 0.000000
							}
						}
						JOINT HairRightF
						{
							OFFSET -10.275200 4.953506 -9.674099
							CHANNELS 3 Xrotation Yrotation Zrotation
							End Site
							{
								OFFSET 0.000000 26.061493 0.000000
							}
						}
					}
				}
				JOINT LeftShoulder
				{
					OFFSET 5.133500 7.341202 -1.867600
					CHANNELS 3 Xrotation Yrotation Zrotation
					JOINT LeftArm
					{
						OFFSET 8.072663 0.936867 -2.176600
						CHANNELS 3 Xrotation Yrotation Zrotation
						JOINT LeftForeArm
						{
							OFFSET 31.271999 0.000000 0.000000
							CHANNELS 3 Xrotation Yrotation Zrotation
							JOINT LeftHand
							{
								OFFSET 31.771030 0.000000 0.000000
								CHANNELS 3 Xrotation Yrotation Zrotation
								JOINT LeftHandThumb1
								{
									OFFSET 2.886520 -2.557846 4.416640
									CHANNELS 3 Xrotation Yrotation Zrotation
									JOINT LeftHandThumb2
									{
										OFFSET 2.371025 -1.368912 1.368911
										CHANNELS 3 Xrotation Yrotation Zrotation
										JOINT LeftHandThumb3
										{
											OFFSET 2.243378 -1.295212 1.295213
											CHANNELS 3 Xrotation Yrotation Zrotation
											End Site
											{
												OFFSET -0.332611 2.876945 0.020015
											}
										}
									}
								}
								JOINT LeftHandIndex1
								{
									OFFSET 8.568985 -0.641945 3.119977
									CHANNELS 3 Xrotation Yrotation Zrotation
									JOINT LeftHandIndex2
									{
										OFFSET 3.348503 0.000000 0.000000
										CHANNELS 3 Xrotation Yrotation Zrotation
										JOINT LeftHandIndex3
										{
											OFFSET 3.314552 0.000000 0.000000
											CHANNELS 3 Xrotation Yrotation Zrotation
											End Site
											{
												OFFSET -1.032898 3.075485 0.678796
											}
										}
									}
								}
								JOINT LeftHandMiddle1
								{
									OFFSET 8.124603 0.000000 0.000000
									CHANNELS 3 Xrotation Yrotation Zrotation
									JOINT LeftHandMiddle2
									{
										OFFSET 4.166275 0.000000 0.000000
										CHANNELS 3 Xrotation Yrotation Zrotation
										JOINT LeftHandMiddle3
										{
											OFFSET 3.018135 0.000000 0.000000
											CHANNELS 3 Xrotation Yrotation Zrotation
											End Site
											{
												OFFSET -1.032700 2.767982 0.617226
											}
										}
									}
								}
								JOINT LeftHandRing1
								{
									OFFSET 8.571686 -0.031357 -2.884048
									CHANNELS 3 Xrotation Yrotation Zrotation
									JOINT LeftHandRing2
									{
										OFFSET 3.671181 0.000000 0.000000
										CHANNELS 3 Xrotation Yrotation Zrotation
										JOINT LeftHandRing3
										{
											OFFSET 2.728851 0.000000 0.000000
											CHANNELS 3 Xrotation Yrotation Zrotation
											End Site
											{
												OFFSET -0.815796 2.539223 0.577389
											}
										}
									}
								}
								JOINT LeftHandPinky1
								{
									OFFSET 7.854515 -0.675232 -5.213020
									CHANNELS 3 Xrotation Yrotation Zrotation
									JOINT LeftHandPinky2
									{
										OFFSET 3.068596 0.000000 0.000000
										CHANNELS 3 Xrotation Yrotation Zrotation
										JOINT LeftHandPinky3
										{
											OFFSET 2.396042 0.000000 0.000000
											CHANNELS 3 Xrotation Yrotation Zrotation
											End Site
											{
												OFFSET -0.524597 2.267998 0.567429
											}
										}
									}
								}
							}
							JOINT LeftSleeve
							{
								OFFSET 19.684509 -0.200119 0.476146
								CHANNELS 3 Xrotation Yrotation Zrotation
								End Site
								{
									OFFSET -0.031017 25.731133 -0.002868
								}
							}
						}
					}
				}
				JOINT RightShoulder
				{
					OFFSET -4.395900 7.341202 -1.870200
					CHANNELS 3 Xrotation Yrotation Zrotation
					JOINT RightArm
					{
						OFFSET -8.071453 0.936867 -2.181100
						CHANNELS 3 Xrotation Yrotation Zrotation
						JOINT RightForeArm
						{
							OFFSET -31.272011 0.000000 0.000000
							CHANNELS 3 Xrotation Yrotation Zrotation
							JOINT RightHand
							{
								OFFSET -31.771019 0.000000 0.000000
								CHANNELS 3 Xrotation Yrotation Zrotation
								JOINT RightHandThumb1
								{
									OFFSET -2.886520 -2.557808 4.416626
									CHANNELS 3 Xrotation Yrotation Zrotation
									JOINT RightHandThumb2
									{
										OFFSET -2.371056 -1.368927 1.368928
										CHANNELS 3 Xrotation Yrotation Zrotation
										JOINT RightHandThumb3
										{
											OFFSET -2.243362 -1.295204 1.295206
											CHANNELS 3 Xrotation Yrotation Zrotation
											End Site
											{
												OFFSET 0.332642 2.876938 0.020047
											}
										}
									}
								}
								JOINT RightHandIndex1
								{
									OFFSET -8.568993 -0.641953 3.120017
									CHANNELS 3 Xrotation Yrotation Zrotation
									JOINT RightHandIndex2
									{
										OFFSET -3.348518 0.000000 0.000000
										CHANNELS 3 Xrotation Yrotation Zrotation
										JOINT RightHandIndex3
										{
											OFFSET -3.314552 0.000000 0.000000
											CHANNELS 3 Xrotation Yrotation Zrotation
											End Site
											{
												OFFSET 1.032898 3.075478 0.678804
											}
										}
									}
								}
								JOINT RightHandMiddle1
								{
									OFFSET -8.124588 0.000000 0.000000
									CHANNELS 3 Xrotation Yrotation Zrotation
									JOINT RightHandMiddle2
									{
										OFFSET -4.166275 0.000000 0.000000
										CHANNELS 3 Xrotation Yrotation Zrotation
										JOINT RightHandMiddle3
										{
											OFFSET -3.018097 0.000000 0.000000
											CHANNELS 3 Xrotation Yrotation Zrotation
											End Site
											{
												OFFSET 1.032700 2.767937 0.617197
											}
										}
									}
								}
								JOINT RightHandRing1
								{
									OFFSET -8.571747 -0.031349 -2.884061
									CHANNELS 3 Xrotation Yrotation Zrotation
									JOINT RightHandRing2
									{
										OFFSET -3.671204 0.000000 0.000000
										CHANNELS 3 Xrotation Yrotation Zrotation
										JOINT RightHandRing3
										{
											OFFSET -2.728874 0.000000 0.000000
											CHANNELS 3 Xrotation Yrotation Zrotation
											End Site
											{
												OFFSET 0.815804 2.539261 0.577413
											}
										}
									}
								}
								JOINT RightHandPinky1
								{
									OFFSET -7.854561 -0.675247 -5.212970
									CHANNELS 3 Xrotation Yrotation Zrotation
									JOINT RightHandPinky2
									{
										OFFSET -3.068550 0.000000 0.000000
										CHANNELS 3 Xrotation Yrotation Zrotation
										JOINT RightHandPinky3
										{
											OFFSET -2.395981 0.000000 0.000000
											CHANNELS 3 Xrotation Yrotation Zrotation
											End Site
											{
												OFFSET 0.524605 2.267952 0.567413
											}
										}
									}
								}
							}
							JOINT RightSleeve
							{
								OFFSET -19.684753 -0.200165 0.476065
								CHANNELS 3 Xrotation Yrotation Zrotation
								End Site
								{
									OFFSET 0.031342 25.731255 -0.002917
								}
							}
						}
					}
				}
				JOINT Hood
				{
					OFFSET 0.369700 14.447800 -5.317800
					CHANNELS 3 Xrotation Yrotation Zrotation
					JOINT Hood1
					{
						OFFSET 0.001700 -5.553802 -5.895100
						CHANNELS 3 Xrotation Yrotation Zrotation
						JOINT Hood2
						{
							OFFSET -0.000200 -8.380501 0.763600
							CHANNELS 3 Xrotation Yrotation Zrotation
							End Site
							{
								OFFSET 0.000000 8.415215 0.000000
							}
						}
					}
				}
				JOINT Left_Breast
				{
					OFFSET 5.682500 3.120102 3.188800
					CHANNELS 3 Xrotation Yrotation Zrotation
					End Site
					{
						OFFSET 0.000000 10.528564 0.000000
					}
				}
				JOINT Right_Breast
				{
					OFFSET -4.947600 3.120102 3.185900
					CHANNELS 3 Xrotation Yrotation Zrotation
					End Site
					{
						OFFSET 0.000000 10.528564 0.000000
					}
				}
				JOINT Whistle
				{
					OFFSET 0.368200 11.471298 0.095400
					CHANNELS 3 Xrotation Yrotation Zrotation
					JOINT Whistle1
					{
						OFFSET -0.002000 -6.349899 7.479800
						CHANNELS 3 Xrotation Yrotation Zrotation
						JOINT Whistle2
						{
							OFFSET -0.001300 -8.217598 4.717600
							CHANNELS 3 Xrotation Yrotation Zrotation
							End Site
							{
								OFFSET 0.000000 9.475479 0.000000
							}
						}
					}
				}
			}
		}
		JOINT Belly
		{
			OFFSET 0.212400 1.593002 3.163700
			CHANNELS 3 Xrotation Yrotation Zrotation
			End Site
			{
				OFFSET 0.000000 7.496635 0.000000
			}
		}
	}
	JOINT FitGrandmaFacialAnim_Joint
	{
		OFFSET 1.150000 -86.211197 -1.220100
		CHANNELS 3 Xrotation Yrotation Zrotation
		End Site
		{
			OFFSET 0.000000 31.666618 0.000000
		}
	}
}
MOTION
Frames: 4
Frame Time: 0.016667
7.513364 81.575478 98.066696 23.890636 24.495608 -7.382266 -0.000000 -0.000000 -0.000000 -42.573829 8.293719 10.847586 48.389551 8.733846 -5.419723 -6.465974 29.165878 -4.874620 0.000000 0.000000 -0.000001 0.000001 -0.000000 0.000001 0.000000 -0.000001 0.000002 -47.864695 -4.800840 -4.794914 35.609102 -6.550526 -4.617332 -8.298585 -7.165598 5.466099 -0.000000 -0.000000 0.000000 0.000001 0.000000 0.000002 -0.000001 -0.000000 0.000001 11.222990 -0.928087 2.089424 6.689003 -2.739662 0.561830 6.767267 -2.647714 0.806086 -7.061396 0.651892 3.401812 -21.911028 3.055703 1.503037 0.000004 0.000000 -0.000000 0.000004 0.000000 -0.000000 0.000004 0.000000 -0.000000 0.000004 0.000000 -0.000000 0.000004 0.000000 -0.000000 0.000004 0.000000 -0.000000 0.000004 0.000000 -0.000000 0.000004 0.000000 -0.000000 0.000004 0.000000 -0.000000 0.000004 0.000000 -0.000000 0.000004 0.000000 -0.000000 0.000004 0.000000 -0.000000 0.000004 0.000000 -0.000000 0.000004 0.000000 -0.000000 0.000004 0.000000 -0.000000 0.000004 0.000000 -0.000000 0.000004 0.000000 -0.000000 0.000004 0.000000 -0.000000 0.000004 0.000000 -0.000000 1.518840 -7.209061 -6.123057 -29.320913 -21.016009 -35.448456 -0.000007 -29.544960 0.000001 -8.273325 6.667498 0.376805 -4.818359 -0.388129 0.088367 7.450091 23.644290 2.311003 -0.000001 -0.000000 -0.000001 1.392521 -4.289634 -18.514961 0.313197 1.891581 -18.800936 0.000002 -0.000000 0.000002 0.814283 5.226585 -29.279935 0.451072 2.256128 -22.609664 -0.000002 -0.000002 -0.000004 3.703740 9.279081 -35.643834 0.291100 1.825449 -18.119655 0.000002 0.000000 0.000002 -8.001731 17.864351 -33.635533 0.395796 2.118630 -21.161552 -0.000001 -0.000001 -0.000000 0.000001 0.000001 -0.000001 2.382993 6.831232 2.707429 -16.474833 -9.604029 53.071598 0.000023 62.536563 -0.000035 -3.641325 3.447579 -8.284685 -8.636238 11.618388 -0.482695 7.832910 -27.003867 -3.053137 -0.000002 -0.000002 -0.000004 9.241549 2.977003 1.678344 0.692448 -2.445361 31.616532 -0.000001 -0.000001 0.000001 0.172073 -3.349958 13.232732 0.583244 -2.258517 28.956075 -0.000001 -0.000002 -0.000000 1.536020 -6.518386 24.725599 0.620958 -2.325321 29.898965 -0.000000 0.000001 0.000003 -5.391425 -16.960673 33.120817 0.696239 -2.451497 31.705694 -0.000003 -0.000000 -0.000000 0.000001 -0.000002 0.000003 -0.000000 0.000000 0.000000 -0.000000 0.000000 0.000000 -0.000000 0.000000 0.000000 -0.000000 0.000000 0.000000 -0.000000 0.000000 0.000000 -0.000001 0.000000 -0.000001 -0.000000 0.000001 0.000000 -0.000000 0.000001 0.000000 0.000002 0.000000 -0.000001 -0.000000 -0.000000 -0.000000 
7.786876 82.461723 99.419640 24.091792 25.325484 -7.668756 0.000002 -0.000000 0.000000 -43.039863 8.341787 9.744413 45.020205 8.876753 -5.430587 -5.344379 29.820988 -5.121640 0.000002 0.000000 0.000000 0.000002 -0.000002 0.000003 -0.000001 0.000003 0.000000 -44.731199 -5.086643 -4.564956 32.322600 -6.457764 -4.626110 -8.145998 -8.068495 5.354365 0.000000 -0.000000 0.000000 -0.000000 0.000001 0.000001 0.000002 0.000000 0.000001 10.989201 -0.454203 2.031516 6.739176 -2.514410 0.541702 6.813294 -2.447944 0.778871 -6.528709 0.281435 2.942690 -23.266317 1.506234 1.300736 0.000000 -0.000001 -0.000000 0.000000 -0.000001 -0.000000 0.000000 -0.000001 -0.000000 0.000000 -0.000001 -0.000000 0.000000 -0.000001 -0.000000 0.000000 -0.000001 -0.000000 0.000000 -0.000001 -0.000000 0.000000 -0.000001 -0.000000 0.000000 -0.000001 -0.000000 0.000000 -0.000001 -0.000000 0.000000 -0.000001 -0.000000 0.000000 -0.000001 -0.000000 0.000000 -0.000001 -0.000000 0.000000 -0.000001 -0.000000 0.000000 -0.000001 -0.000000 0.000000 -0.000001 -0.000000 0.000000 -0.000001 -0.000000 0.000000 -0.000001 -0.000000 0.000000 -0.000001 -0.000000 1.571524 -7.049215 -6.199186 -27.840556 -21.494295 -35.479479 -0.000003 -28.581693 -0.000014 -5.965533 5.303758 -2.777227 -4.821594 -0.408740 0.104050 7.450092 23.644284 2.310985 0.000002 0.000002 0.000000 1.410553 -4.236794 -19.058289 0.332467 1.947227 -19.376227 0.000002 -0.000001 0.000000 0.825879 5.247071 -29.510508 0.442708 2.235961 -22.396277 -0.000002 0.000000 0.000002 3.686992 9.272159 -35.517588 0.258879 1.723926 -17.079320 -0.000001 0.000000 0.000002 -8.021516 17.813845 -33.080286 0.333917 1.951371 -19.419150 0.000000 -0.000001 0.000001 0.000000 -0.000001 0.000001 2.412583 6.644247 2.840674 -17.278010 -10.440143 53.740072 0.000038 64.466904 -0.000051 -4.319513 3.303174 -8.566016 -8.559275 11.392686 -0.383821 7.832906 -27.003867 -3.053137 -0.000002 -0.000004 -0.000001 9.265294 2.897276 4.050163 0.831886 -2.658397 34.747754 0.000000 0.000001 0.000001 0.218734 -3.531509 15.536823 0.689723 -2.440925 31.552704 -0.000004 -0.000001 -0.000002 1.695763 -6.638568 26.794595 0.720461 -2.490244 32.267286 -0.000001 0.000000 -0.000001 -5.286600 -17.043275 35.032378 0.792362 -2.600527 33.886331 -0.000002 -0.000000 0.000001 0.000002 0.000001 0.000001 0.000001 0.000001 -0.000000 0.000001 0.000001 -0.000000 0.000001 0.000001 -0.000000 0.000001 0.000001 -0.000000 0.000001 0.000001 -0.000000 0.000001 0.000001 -0.000001 0.000002 0.000001 0.000000 0.000002 0.000001 0.000000 -0.000003 -0.000000 -0.000000 0.000002 -0.000000 0.000000 
8.046309 83.169930 100.768311 24.256905 26.196634 -7.973107 0.000001 -0.000001 0.000000 -43.314464 8.318684 8.947806 41.621073 9.592568 -5.514291 -3.206145 30.238501 -6.631885 0.000001 0.000001 -0.000000 0.000001 0.000001 -0.000001 -0.000002 0.000003 0.000003 -41.868069 -5.516739 -4.333271 29.550786 -6.281582 -4.620742 -8.221921 -8.956580 5.176965 -0.000000 -0.000000 -0.000000 0.000000 -0.000000 0.000001 -0.000000 0.000003 0.000001 10.740863 0.033719 2.013984 6.787126 -2.287290 0.523223 6.856944 -2.249066 0.744095 -6.145215 0.029309 2.502972 -24.587525 -0.208395 0.944950 0.000001 0.000000 0.000000 0.000001 0.000000 0.000000 0.000001 0.000000 0.000000 0.000001 0.000000 0.000000 0.000001 0.000000 0.000000 0.000001 0.000000 0.000000 0.000001 0.000000 0.000000 0.000001 0.000000 0.000000 0.000001 0.000000 0.000000 0.000001 0.000000 0.000000 0.000001 0.000000 0.000000 0.000001 0.000000 0.000000 0.000001 0.000000 0.000000 0.000001 0.000000 0.000000 0.000001 0.000000 0.000000 0.000001 0.000000 0.000000 0.000001 0.000000 0.000000 0.000001 0.000000 0.000000 0.000001 0.000000 0.000000 1.618580 -6.835510 -6.264185 -26.441488 -21.915697 -35.489642 -0.000002 -27.829485 -0.000007 -4.158956 3.707719 -5.268076 -4.822750 -0.415826 0.109421 7.450095 23.644290 2.310992 -0.000000 0.000001 -0.000000 1.429691 -4.182437 -19.619256 0.359079 2.021264 -20.144823 0.000004 -0.000000 0.000000 0.838480 5.269138 -29.759356 0.446236 2.244490 -22.486513 0.000001 0.000000 0.000000 3.688292 9.275107 -35.508596 0.236537 1.649495 -16.320402 -0.000001 0.000001 -0.000001 -8.038808 17.773810 -32.635597 0.284465 1.805047 -17.910365 0.000001 -0.000000 -0.000002 -0.000000 -0.000001 0.000001 2.446335 6.435832 2.980739 -17.981419 -11.167559 54.420594 -0.000003 66.639512 -0.000006 -4.845011 3.164065 -9.542834 -8.466638 11.117446 -0.246933 7.832899 -27.003875 -3.053140 -0.000002 0.000001 0.000001 9.295350 2.878070 6.343588 0.977320 -2.856453 37.770335 -0.000000 0.000002 0.000002 0.270628 -3.704758 17.759740 0.799804 -2.611561 34.049934 -0.000002 0.000003 -0.000001 1.852707 -6.746817 28.783476 0.815919 -2.635206 34.401583 0.000001 -0.000001 0.000001 -5.180581 -17.111987 36.727331 0.873718 -2.717612 35.639678 -0.000001 0.000000 -0.000002 -0.000000 -0.000002 0.000002 0.000001 -0.000000 0.000001 0.000001 -0.000000 0.000001 0.000001 -0.000000 0.000001 0.000001 -0.000000 0.000001 0.000001 -0.000000 0.000001 0.000001 -0.000000 -0.000000 0.000001 -0.000000 0.000001 0.000001 -0.000000 0.000001 0.000001 0.000001 -0.000000 0.000001 -0.000001 0.000000 
8.326072 83.701004 101.988297 24.357187 27.102466 -8.331091 -0.000000 0.000001 -0.000000 -43.716814 8.276000 8.356288 38.096493 9.471931 -5.529048 -0.264604 30.285783 -8.904372 0.000000 -0.000001 0.000000 -0.000000 0.000001 0.000000 -0.000001 -0.000002 0.000001 -39.330931 -6.065630 -4.111056 27.351281 -6.007214 -4.596567 -8.466475 -9.857782 5.014421 0.000000 -0.000000 -0.000000 -0.000001 -0.000001 0.000000 0.000001 0.000001 0.000001 10.478888 0.537713 2.014326 6.832004 -2.056072 0.504972 6.898567 -2.042594 0.728348 -5.916548 -0.334476 1.914447 -25.874860 -1.918010 0.673788 0.000001 0.000002 -0.000000 0.000001 0.000002 -0.000000 0.000001 0.000002 -0.000000 0.000001 0.000002 -0.000000 0.000001 0.000002 -0.000000 0.000001 0.000002 -0.000000 0.000001 0.000002 -0.000000 0.000001 0.000002 -0.000000 0.000001 0.000002 -0.000000 0.000001 0.000002 -0.000000 0.000001 0.000002 -0.000000 0.000001 0.000002 -0.000000 0.000001 0.000002 -0.000000 0.000001 0.000002 -0.000000 0.000001 0.000002 -0.000000 0.000001 0.000002 -0.000000 0.000001 0.000002 -0.000000 0.000001 0.000002 -0.000000 0.000001 0.000002 -0.000000 1.646197 -6.617214 -6.320240 -25.016645 -22.020550 -35.430223 -0.000005 -27.294804 -0.000009 -2.639179 2.137416 -7.461867 -4.821886 -0.409569 0.104699 7.450090 23.644288 2.310988 -0.000003 0.000002 0.000004 1.449930 -4.126695 -20.196314 0.393224 2.111959 -21.091677 0.000003 0.000001 0.000001 0.852127 5.292774 -30.026676 0.460308 2.278162 -22.843146 -0.000001 0.000000 0.000000 3.705301 9.286624 -35.601821 0.223630 1.604736 -15.865461 -0.000002 0.000000 -0.000001 -8.053310 17.745672 -32.316541 0.246345 1.682581 -16.657571 0.000001 -0.000001 -0.000001 0.000000 -0.000000 -0.000001 2.483079 6.243168 3.110971 -18.599618 -11.797028 55.140438 -0.000014 68.895340 0.000028 -5.221356 2.918445 -10.687386 -8.360211 10.798180 -0.075893 7.832905 -27.003873 -3.053138 -0.000002 0.000001 -0.000005 9.320964 2.929882 8.482595 1.121866 -3.033588 40.583085 0.000000 0.000003 0.000002 0.324909 -3.863882 19.826957 0.908256 -2.765103 36.361912 -0.000003 -0.000001 -0.000002 2.000291 -6.840058 30.623484 0.900141 -2.754070 36.193316 0.000001 0.000000 0.000001 -5.078683 -17.159261 38.110932 0.930524 -2.795060 36.821089 -0.000003 -0.000000 -0.000003 -0.000003 -0.000002 0.000002 -0.000000 -0.000000 0.000000 -0.000000 -0.000000 0.000000 -0.000000 -0.000000 0.000000 -0.000000 -0.000000 0.000000 -0.000000 -0.000000 0.000000 -0.000000 -0.000000 0.000000 0.000001 0.000000 0.000000 0.000001 0.000000 0.000000 0.000003 0.000000 -0.000000 -0.000000 0.000001 -0.000000 
